<svg xmlns="http://www.w3.org/2000/svg" viewBox="0 0 208.79 216.28"><defs><style>.cls-1{fill:#808ebc;}</style></defs><title>Asset 1</title><g id="Layer_2" data-name="Layer 2"><g id="Layer_3" data-name="Layer 3"><path class="cls-1" d="M204.82,3.58c0-1.22-.38-.78-.46-1C204.46,4.65,204.93,3.52,204.82,3.58Z"/><polygon class="cls-1" points="205.77 23.76 205.6 23.4 206.02 26.38 205.77 23.76"/><path class="cls-1" d="M205.76,42.63c.71-1.78-.12-6.84.14-10.2l.16-.55-.58-1.52C205.58,34.45,206,39.76,205.76,42.63Z"/><path class="cls-1" d="M204.22,52.7c.28-.62.24,2.18.09-2.35l-.07.43C204.24,51.18,204.24,51.74,204.22,52.7Z"/><path class="cls-1" d="M204.24,50.78c0-2-.23,1.3,0,0Z"/><path class="cls-1" d="M204.4,60l-.25-2.62c-.16.55-.2,2.88-.32,2C204,62,204.13,61.48,204.4,60Z"/><path class="cls-1" d="M204.92,62.44l-.1-1.36A2.54,2.54,0,0,0,204.92,62.44Z"/><path class="cls-1" d="M204.59,58.2l.22,2.88c.11-.38.35-.42-.08-1.32C204.94,60,204.74,59.43,204.59,58.2Z"/><path class="cls-1" d="M204.7,56.57c.16-1.47.25-3.37.5-.74C205.1,50.83,204.6,51.57,204.7,56.57Z"/><path class="cls-1" d="M206.5,43.6l.21-2-.24-1.7C206.59,40.78,206.28,43.72,206.5,43.6Z"/><path class="cls-1" d="M204,76.27c.15.16.4-.88.6-1.08l-.17-1.93A12.32,12.32,0,0,1,204,76.27Z"/><path class="cls-1" d="M204.63,75.19l.26,2.89C204.92,75.5,204.79,75,204.63,75.19Z"/><polygon class="cls-1" points="205.71 62.91 205.16 58.15 205.72 63.82 205.71 62.91"/><polygon class="cls-1" points="204.01 87.32 203.66 85.68 204.19 88.6 204.01 87.32"/><path class="cls-1" d="M204.07,94.65c-.29-1.21-.49,1.66-.67.38a41.92,41.92,0,0,0,.53,5.22A30,30,0,0,1,204.07,94.65Z"/><path class="cls-1" d="M204.25,102.82c-.07-.81-.19-1.65-.33-2.57A23.25,23.25,0,0,0,204.25,102.82Z"/><path class="cls-1" d="M204.81,83a5.77,5.77,0,0,0-.43,2.28l.43-1.14Z"/><path class="cls-1" d="M204.82,84.11v0l0,2.46Z"/><path class="cls-1" d="M204.81,82.73V83A.3.3,0,0,0,204.81,82.73Z"/><path class="cls-1" d="M205.32,70.49c.24,1.7.49,5.24.86,1.81C205.89,71.09,205.68,73,205.32,70.49Z"/><path class="cls-1" d="M205.35,81.31l.1-3.07c-.11.06-.28.61-.4-.23Z"/><polygon class="cls-1" points="205.48 82.82 205.35 81.31 205.31 82.45 205.48 82.82"/><path class="cls-1" d="M204.65,97.56a37.81,37.81,0,0,1,.23,4.42c.08-1.76.13-3.58.13-5.3C204.88,96.43,204.64,95.67,204.65,97.56Z"/><path class="cls-1" d="M204.77,91l0,.3C204.83,91.14,204.84,91,204.77,91Z"/><path class="cls-1" d="M204.88,118.13l.08-.26-.07-.06Z"/><path class="cls-1" d="M205.09,96.38a11.06,11.06,0,0,0-.15-2.86c0,1,.07,2,.07,3.16C205.07,96.78,205.11,96.81,205.09,96.38Z"/><path class="cls-1" d="M204.45,107.33c.09-.69.17-1.47.23-2.29A8.63,8.63,0,0,0,204.45,107.33Z"/><path class="cls-1" d="M204.68,91.76l0-.2C204.57,92,204.61,91.95,204.68,91.76Z"/><path class="cls-1" d="M204.68,91.76c.06.68.17,1.21.26,1.75,0-.8-.08-1.55-.14-2.2A3.09,3.09,0,0,1,204.68,91.76Z"/><path class="cls-1" d="M207.62,123c-.4-.23-.76-3.71-.34-6.71-.3-3-1.6-1-2.33,1.55.17.09.33.09.57,3.13.22-1.06.51-6.74.86-4.18.2,4-.14,3.3-.35,5.25.49-1.66.72,5.12,1.44,4.24l-.26-3.53C207.34,122.72,207.52,124,207.62,123Z"/><path class="cls-1" d="M205,112.08l0-1.25a34.22,34.22,0,0,1-.54,4.32c.19,2.08.34,2.51.47,2.65l.06-6.15Z"/><path class="cls-1" d="M204.95,105.22c.43,1,.61,4,1.08,2.14,0-3.67-.36-2.57-.55-4.76.11,5.92-.24-1.7-.48,2.58-.07-1.16-.1-2.21-.11-3.2-.05,1.07-.12,2.09-.2,3.06l0-.14v0h0c.05-.26.09-.34.06-.05,0,0,0,.09,0,.12a.68.68,0,0,1,.16.27c-.09,1.71-.11.27-.16-.27,0,0,0-.07-.07-.07v0l.24,5.93C205,109.58,205,108,204.95,105.22Z"/><path class="cls-1" d="M207.11,75.47c0,.18-.07.18-.1.19C207.06,76,207.1,76.19,207.11,75.47Z"/><path class="cls-1" d="M206.85,77.91a7.78,7.78,0,0,1-.19-2.19c.13-1.22.21,0,.35-.06-.11-.84-.31-3-.52-.31l.06.42a22.37,22.37,0,0,1-.74,5A9.88,9.88,0,0,0,206.85,77.91Z"/><path class="cls-1" d="M206,91.73l.21,4.94.37-2.51-.22.13C206.46,91.48,206.18,92.08,206,91.73Z"/><polygon class="cls-1" points="204.67 118.69 204.21 118.04 204.85 120.89 204.67 118.69"/><polygon class="cls-1" points="204.72 125.11 204.32 124.87 204.56 126.56 204.72 125.11"/><path class="cls-1" d="M1.48,142.83l-.11-1.45C1.41,142.07,1.44,142.51,1.48,142.83Z"/><path class="cls-1" d="M1.46,153.34l.2.26C1.54,153.11,1.46,152.91,1.46,153.34Z"/><path class="cls-1" d="M137.87,210.81c-2.11-.37-4.47-.94-4.22-.5l.65.43A23.31,23.31,0,0,1,137.87,210.81Z"/><path class="cls-1" d="M30,213.4l.62.13,1.43-.41Z"/><path class="cls-1" d="M28.47,215.2l-2.79-.28C26.31,215,27.2,215.11,28.47,215.2Z"/><path class="cls-1" d="M1,85.47.58,83.78C.58,86.43.81,85.26,1,85.47Z"/><path class="cls-1" d="M204.88,190.82c-.17,1.82-.24,3.27-.26,4.55C204.87,193.17,205.24,191.4,204.88,190.82Z"/><path class="cls-1" d="M6.09,147c-.08-.89-.17-1.27-.26-1.24C5.9,146.64,6,147.16,6.09,147Z"/><path class="cls-1" d="M204.62,200.64l.1-1c-.07-1.33-.13-2.67-.1-4.3A19.1,19.1,0,0,0,204.62,200.64Z"/><path class="cls-1" d="M129,.13l.47.05C129.54.12,129.33.12,129,.13Z"/><path class="cls-1" d="M189.63,4.51c-.6,0-1.57,0-2.49,0A24.34,24.34,0,0,0,189.63,4.51Z"/><path class="cls-1" d="M204.53,150.92c0-1.36,0-.22,0,0Z"/><path class="cls-1" d="M206.25,144.31c0,.29.11.51.21.54A1.07,1.07,0,0,1,206.25,144.31Z"/><path class="cls-1" d="M206.42,213.37h-.12C206.77,213.45,206.69,213.43,206.42,213.37Z"/><path class="cls-1" d="M204.73,148.88c-.05.51-.1,1.1-.13,1.74C204.63,150.34,204.67,149.81,204.73,148.88Z"/><path class="cls-1" d="M204.52,149.15l0-1.19C204.49,147.79,204.45,147.94,204.52,149.15Z"/><path class="cls-1" d="M204.55,152.82c0-.78,0-1.5,0-2.2,0,.27-.05.38-.07.31Z"/><path class="cls-1" d="M17.56,1.29l.29,0C19.23,1.15,18.62,1.18,17.56,1.29Z"/><path class="cls-1" d="M102.46,215.32l.16,0-.2,0Z"/><path class="cls-1" d="M97.57,215.64a12.8,12.8,0,0,1,4.84-.36L100.8,214Z"/><path class="cls-1" d="M1.36,117.69,1,121.12C.33,117,.55,114,0,117.2c1.36.49.14,13.34,1.5,13.82l-.29,2.26c0-.65-.07-.75-.05-1.39-.65,4.4,1,3.27.79,8.94-.1,2-.3,3.35-.46,2l.34,4.4c0,1.28-.26,1-.24-.31l.11,6.71,0,0c.21,1,.54,3.13.68,4.19-.2,1.71-.14-.86-.31-.42l.33,3.72c-.35,1.51-.69-1.57-.64-4.14C.35,160.42,2,160,1.26,167.53L1.08,164c-.77,2.26-.49,5-1,9,.25-.94,1.21-7.95,1.55-3.91a21.62,21.62,0,0,0,.12,4.81c-.48,0-.36,2.15-.34,4.81l-.64-.18c.18,2.88.51,2.65.8,4.34-.06,3.21-.56,3.87-1,4.62-.1,5.13.79-3.54.92,2.53a85,85,0,0,0,.4,12.37c-.22,3-.39-.52-.57.55l.51,2.65c0,.65-.17.44-.25.33.2,2.26.64.13.81,3.75.31.57.15,2.34-.06,5.11,1.48.13,3.39.29,5.37.35a17.67,17.67,0,0,0,4-.18c1.07.18-.52.39-.19.64,6-.53,5.11-.38,10-1.09l4.17.42c-3.06-.48.85-1,4.28-1.52-1.09-.23-2-.44-2.64-.53l5.47-.34c.66.1.11.32-.79.59l1-.15c2,.24.94.61-.46,1l-2-.39c-1.35.39-2.61.82-2.33,1.19a13.79,13.79,0,0,1,1.79-.17c-.35.11-.58.2-.42.26a6.52,6.52,0,0,0,1.65-.24l1.24.71.3-.28,7.15.45c5.12-.72,9.57-1.77,17.7-2.07-2,.52-.43.85-.54,1.47-2.22-.66-6.29.28-10.5.15,2.2.07,1.71.37,1.15.47l7.51-.6c-.17.51,1.59.38,3.56.59-1.48-1,5.6-.67,8.65-1,.19.34-.54.68-4.27.6,4.11.75,5.31-1.18,9.35-.54a4.89,4.89,0,0,0-1.76.13c2.13-.3,7.32-.06,6.1.23H76c6,.12,18.4,0,19.3-.84.06.11-.79,1-1.16,1.2l10.78-2.86c-.95.73,2.7,2.47-2.31,2.88a35.54,35.54,0,0,0,6.25,0c-1-.1-2.45-1.06-1.11-1.12a67.48,67.48,0,0,0,7.09,1.13c-1.47-.16.16-1.3,2.49-1.27-.36.17.19,1.13-.66,1.25l5.79-1.12c-1.44.2-.26,1,1,1.27-.6-.22,5,0,6.55-.09l-2.45-.26c6.53.17,6.45-1.58,12.94-1.52-.78.23-1.94,1.43,1.36,1.57a44,44,0,0,1,12.42-3.21l1.1.33,4.4-.38c-2.74.87-10.43,2.69-14.63,3.4,2.44.26.68.39,4.34.36,1.29.31-2,.47-3.07.49l8.53.2c-.38-.67,6.52-.67,6.19-1.23l-9.26.7c-.38-.67,5.35-1.91,11.39-1.79,1.54.27-1.15,1.2-1,1.42a34.36,34.36,0,0,1,6.29-.28l-2.56.36c3.36.25,5.49-.89,9.53-.25,1.39,0,4.16.87,4.41.47-2.27-.77-2.72-3.14-1.2-3.72.49.05,7.32.73,8.92,1.11,2.3.6-3.45,1.43-1.49,2a5.68,5.68,0,0,1,1.88-.48c1.46.16-.61.57,2.58.49.53-.68,6.47.06,1.5-.58,3.11-.19,3.31.14,7,.11-.58-.22.24-.59,1.59-.94.68-.17,1.49-.34,2.33-.47s1.57-.24,2.24-.29c-.08.17.7.4,1.15.5h.92l.09-4.07.12-3.51c.08-2.28.15-4.53.15-7.36.17-.55.36-3.42.66-2.2a18.87,18.87,0,0,1-.37-3.48c.59-3.55.09,4.09.8,1.38-.4-.23-.55-4.75-.79-7.36-.61.8-.12,6,.13,8.66-.84,0-1.73-4.55-2.12-10.77-.21-4.94.55-2.14.43-3,.15-9.29-1.47-7.91-.86-15.62.54-3.06,1.07-.14,1.46-.82.2,4-.34,6.18-.32,8.91l.25-3.36a29.07,29.07,0,0,1,.16,5.43c.48-2.56.09-15.69.54-22.85-.18-1.27-.37-3.47-.58-2.43l.07,2.27c-.43,2.08-.6-4.27-.8-1.4a62.58,62.58,0,0,1-.54-10.73l.61-.8a12.43,12.43,0,0,0-.18,4c-.27-1.78.83-6.56,0-8.52l-.42,3a68.2,68.2,0,0,1-.77-10.62c-.61,1.73.07.87-.64,3.57.88-2.34,0,9.71.89,6-.82,2.77-.35,4.79-1,8.4.2-.11.39-1.28.29,1.9a5.37,5.37,0,0,1,.18.7l0,.21,0-.18c0,.14,0,.15,0-.07a7.38,7.38,0,0,1,.31-1.62c.46,1.58.45,6.65.69,8.36-.1,1.89-.23-.79-.45.24l.36,2.56c-.45.25-.75,5-1,.57l0,4a44.58,44.58,0,0,0-.16,7.61c-.1,1.89.5,4.77.15,3.13l.28,6.28-.11.06c-.06,6.2.74,12.76-.07,19.85a74.51,74.51,0,0,1,.12,7.74l-.39.68c0,.34,0,.72,0,1.13s0,.28,0,.34v.18c0,.24-.06.47-.1.67a3.78,3.78,0,0,0-.63,0,.7.7,0,0,0-.21,0c-.09,0,0,.06-.25.11-2.89-1-13-.23-17.72-.41l-.18.51c-3.24,0-6.36.12-10.38.32l.25.45c-3.47.37-8.93-.32-14.42-.27a8.81,8.81,0,0,1,2.75,0c-6.56-1-13.84.74-19.79,0a15.53,15.53,0,0,1-3.6,0l.37,0h-.61l-2.06-.24c.62.11,1.22.2,1.73.24-1.14,0-2.88.06-4.58.18l-.72-.48h-.39c-1.67-.18-1.34.23-.45.59-.86.08-1.64.17-2.25.29-1.36-.78-4.46.26-6.31-.57-1.15.4-8.55.3-9.45,1.16-.06-.11-.56-.16.36-.17a29.73,29.73,0,0,0-5.49,0l-.8-.61-4.14.82c-2.51-.37-3.56-.59-1.06-1.06-6,.73-4.89.27-10,1l.25-.4c-1.83,0-4.76.55-5.87.22-4.1-.75-20.28-.1-30.81-.8,2,1.17-4.89-.52-5.31.38-.61-.28-2.08-.43-.38-.67-5.37.27-8.07-.44-11.78.32-.61-.28,1.15-.4.6-.57a7.51,7.51,0,0,1-2.27.07c-.55-.16.79-.23,1.64-.35-5.49,0-6,.9-6.44,1.69a13.82,13.82,0,0,0-6.17.2c-1-.26-2.58-.53.83-.63-1.92,0-11.71-.38-11.91.26a14.3,14.3,0,0,0-3.19,0L9,211.95H7.36l-1.68,0,.71.1a4.06,4.06,0,0,1-1.7.4c0-.48,0-1.08.07-1.72l.06-1v-1.44l.08.1c.56-7.81-.27-3.37.37-11.08l-.48.42c-1-.72.61-6.83.21-11.3L4.73,188c-.35-2.44,1.4-6.83,1.53-9.28.09-.53.14.84.21,1.59.61-6.42-.63-.83-.77-5.62.34-.88.86,1.14.93-2.08.27-1.6-1.1-9.34-.45-13.74-.26,1-.52,1.93-.72-.29-.09-3.41,1-9.21.16-12.29.07-.43.14-.6.21-.61-.21-2.6-.35-8.46-.8-10,1.66-2.41-.81-16.19.72-16.13l-.08-8,.16.21A33.48,33.48,0,0,0,5.19,103c.1-1.18.25-.32.33-.22A63,63,0,0,0,5,88.31l.5-.65c-.29-1.7.78-10.82.2-18.15a1.56,1.56,0,0,1,.22.81c-.58-8.26,1.37-19.76-.43-22.79L5,42.07c-.14,7-.78-1-1.08,1.85-.11-2.77.54-7.17.64-3.76l-.09.53c.94,1.25.33-8.76,1-8.57,0-5,0-10,.12-14.93l.14-7.34.07-3.51.07-1.72,1.32,0,2.13,0,5.4,0L13.22,4l4.53,0c1.19.17,1.6.57-1.64.54a13.77,13.77,0,0,0,5.51-.51c6.33.3-2.47.85-.53.87l2.64-.05-.59-.09a25.16,25.16,0,0,1,6.21-.58c2.46.15,1.26.45,2.23.48,0,.05.32.08,1.48,0l5.71.06L36.5,4.22c2.53-.28,5.37,0,2.73-.62,3.87,1,21.3.36,23.67.68a86.83,86.83,0,0,1,11.38-.36c-1.08-.12-1.72-.77,2-.69-1.37,1.34,6.84.58,9.87,1.55-2.7-.64,10.63-.16,6.39-1.07,3.12.11.19.5,2.56.82,7.42-.52,16.36.34,25.54.16.14-.18-1.39-.44.57-.71l4.84.88c1.81-.09,1.67-1,5-.4-.47-.15-1.17-.37,0-.43,18,.86,36.73-.7,55,.91-2.47-.34-.82-.37,1.06-.39-1.23-.08,0-.43-.21-.67l7.64.66c1.39-.66,8.19,0,9-.68L201.15,4c3.22-.75-4.5-1.66-4-2.62-3.6.85-9.5-1.26-15.42,0-1.31-.2,1.11-.31.42-.53a21,21,0,0,1-6.66.31l.38-.1c-9.42.1-13.46-.3-24.05-.57l.78.47a29,29,0,0,1-3.82-.33c-2.61.72,6.39,0,4,.83-3-1-16,0-18.08-1.11-3.5,0,1,.55-2.47.54l-.93-.3-.88.38c-2.29-.06-3.45-.43-3.54-.68.56,0,1.58-.07,2.18-.09-3-.35-8.39.12-9.41,0L123,.32C113.43.6,101.76.21,92.54.81l.7.22c-7,.41-5.64-.25-13.38-.05l.28-.05a39.33,39.33,0,0,1-5.73.31c2-.26-3.68-.51-1.11-.8-7.64.44-3.78.35-8.83,1.18L63.3,1.25a22.06,22.06,0,0,1-5.73.61c3.17-.32-2.47-.56,1.08-1C50.55.06,46.62,1.69,42.9.5c-3.72,1,7,.57,4.93.79,1.75.34-3.07.77-5.62.66S37.81.64,31.29.66c.65,0,.69-.07,1.34-.07C30.19.33,27.85.95,24.86.52c-1.68.62-3.88,0-4.37.76l6-.18c-3.39.21-6.57,1.13-12.15.68a23.72,23.72,0,0,1,3.24-.49c-1.63-.23-3.14.15-4.83-.09C13.21.42,20,1,23.62.43c-1.75-.33-6.87.57-5-.28C16,1.24,12.16,0,7.75.84L8,.37l-.3,0L7.2.45,5.91.54C5,.61,4,.66,3,.65Q4.54.35,6.41,0a44.06,44.06,0,0,1-5,.14c0,1.94-.17,3.85-.27,5.89l0,.61,0,.45,0,.9a17.08,17.08,0,0,0,0,1.81c0-1.79,0-2.79.09-3.33.06-.83.14-1,.24-.86S1.86,6.81,2,4.61l.09,2.11L2.16,8c0,.76,0,1.38-.05,1.9a12.74,12.74,0,0,1-.43,2.42C1.32,13.71.91,15.24,1,20.2c-.07-1.34.28-5,.5-2.94A46.32,46.32,0,0,1,1,22.79c.1,6.56.49-1,.78,1.79-.58,2.23.24,3.22.42,6.1l-.48,0c-.31,7.48,1,2,.63,8.72l-.67-2.85.17,3.51-.55-.72a45.7,45.7,0,0,1,.15,8.75c.34-.87.88.49.89,3.8-.29,2.26-.46-1.27-.39,3.43a7.57,7.57,0,0,1-.24-4.27c-.16-.21-.3-1-.46-1.26a61.94,61.94,0,0,0-.07,7.82,17.14,17.14,0,0,1,.11-1.84L2,62.6c-.18,1.07-.33.22-.47-.62.05,1.38.27,2.33.32,4.36-.39-.52-.8-.4-1-3.27l.44,6.49C1.1,70,.8,72.88.65,72c-.23,3.6.76,8.82.46,13.59a8.66,8.66,0,0,1,.2,1.76c-.09,4.48-.57,8.45,0,13.76l-.7,3c.16,4.16.89-4.08,1.15,2.85.22,4.9-.6,1.83-.79,3.55a40.45,40.45,0,0,1,.5,11.18C1.31,120.25,1.41,119.08,1.36,117.69ZM1.67,169c-.1-1-.41-3-.13-3.7C2.09,166.41,1.83,167.28,1.67,169Zm35.84,45.35a10.26,10.26,0,0,1-3.17-.1A21.44,21.44,0,0,1,37.51,214.33Zm167.41-48.49,0,.11C204.76,168.16,204.83,167.38,204.92,165.84Zm.21-4.6c-.07-.46-.13-.43-.2-.24a10.67,10.67,0,0,1,.1,2.53A5.6,5.6,0,0,0,205.13,161.24ZM32.1,4.54l-.9-.13C33.22,4.27,32.66,4.4,32.1,4.54Z"/><path class="cls-1" d="M28.67,215a.66.66,0,0,1-.43-.26C27.85,214.81,27.84,214.9,28.67,215Z"/><path class="cls-1" d="M1.1,85.79v-.16A.35.35,0,0,0,1,85.47Z"/><path class="cls-1" d="M188,215.27a10.48,10.48,0,0,1-1.83-.25C186.13,215.14,186.56,215.24,188,215.27Z"/><path class="cls-1" d="M204.31,136.84l.13,2.95a15.92,15.92,0,0,1,.16-2.66C204.48,137.2,204.32,137.76,204.31,136.84Z"/><path class="cls-1" d="M207.3,111.24c-.06-.43,0-.91-.07-1.34L207,110C207,111.86,207.2,113.14,207.3,111.24Z"/><path class="cls-1" d="M205.92,134.11c.41-.23.27-2.08.19-4.15v.37C205.54,129.72,205.73,131.92,205.92,134.11Z"/><path class="cls-1" d="M206.09,129.48c0-.64,0-1.29,0-1.91C205.86,127.33,206,128.35,206.09,129.48Z"/><path class="cls-1" d="M204.86,155.4c.1-1-.52-.61-.35-1.17C204,153.13,205.13,160.76,204.86,155.4Z"/><polygon class="cls-1" points="207.25 132.44 206.75 133.18 207.16 134.34 207.25 132.44"/><path class="cls-1" d="M206.88,148.75l.14-3.3c-.08,0-.13-.37-.17-.88A27.7,27.7,0,0,0,206.88,148.75Z"/><path class="cls-1" d="M206.85,144.56a21.84,21.84,0,0,0-.08-2.66C206.77,142.48,206.79,143.71,206.85,144.56Z"/><polygon class="cls-1" points="207.4 136.95 207.3 137.93 207.26 140.25 207.4 136.95"/><path class="cls-1" d="M206.79,184.23l.14,3.6c.17.37.28-.61.21-2C207,185,207,183.68,206.79,184.23Z"/><path class="cls-1" d="M208.16,173.33a5.47,5.47,0,0,1-.38,1.59l.62.11Z"/><path class="cls-1" d="M208.31,183.84c.17.36.49,5.23.46.66C208.59,184.14,208.45,180.53,208.31,183.84Z"/><polygon class="cls-1" points="182.44 213.57 183.35 213.56 183.22 212.54 182.44 213.57"/><path class="cls-1" d="M134.6,216c4.27.24,1-.63,4.87-.32,1-.24-3.15-.25-2.13-.46C134.77,215.48,133.41,215.33,134.6,216Z"/><path class="cls-1" d="M137.34,215.22c.41,0,.85-.09,1.32-.15A13,13,0,0,0,137.34,215.22Z"/><polygon class="cls-1" points="199.69 5.06 202.44 5.27 200.66 4.93 199.69 5.06"/><path class="cls-1" d="M205,4.3l.65.65,1.65-.59A9.82,9.82,0,0,1,205,4.3Z"/><path class="cls-1" d="M.36,176.6l.16.21a8,8,0,0,0,.21-2.35Z"/><polygon class="cls-1" points="0.85 139.38 0.83 140.02 1.42 138.82 0.85 139.38"/><path class="cls-1" d="M.1,108.13c0,1.28.11,2.77.08,4.06C.07,109.41.83,107.79.1,108.13Z"/></g></g></svg>