<?xml version="1.0" encoding="utf-8"?>
<!-- Generator: Adobe Illustrator 21.0.2, SVG Export Plug-In . SVG Version: 6.00 Build 0)  -->
<svg version="1.1" id="Layer_1" xmlns="http://www.w3.org/2000/svg" xmlns:xlink="http://www.w3.org/1999/xlink"
	 viewBox="0 0 1280 800" enable-background="new 0 0 1280 800" xml:space="preserve">
<g>
	
		<g id="solid" inkscape:version="0.48.1 r9760" sodipodi:docname="twitter_bootstrap_logo.svg" xmlns:cc="http://creativecommons.org/ns#" xmlns:dc="http://purl.org/dc/elements/1.1/" xmlns:inkscape="http://www.inkscape.org/namespaces/inkscape" xmlns:rdf="http://www.w3.org/1999/02/22-rdf-syntax-ns#" xmlns:sodipodi="http://sodipodi.sourceforge.net/DTD/sodipodi-0.dtd" xmlns:svg="http://www.w3.org/2000/svg">
		<path id="bg" fill="#563D7C" d="M416.9,447.8c0,21-17.2,38.1-38.1,38.1H226.2c-21,0-38.1-17.2-38.1-38.1V295.2
			c0-21,17.2-38.1,38.1-38.1h152.6c21,0,38.1,17.2,38.1,38.1V447.8z"/>
		<g id="B" enable-background="new    ">
			<path fill="#FFFFFF" d="M250.2,306.8h64.9c12,0,21.6,2.7,28.8,8.2c7.2,5.5,10.8,13.8,10.8,24.9c0,6.7-1.6,12.5-4.9,17.3
				c-3.3,4.8-8,8.5-14.1,11.1v0.4c8.2,1.8,14.5,5.6,18.7,11.7c4.2,6.1,6.4,13.6,6.4,22.7c0,5.2-0.9,10.1-2.8,14.7
				c-1.9,4.6-4.8,8.5-8.8,11.8c-4,3.3-9.1,5.9-15.3,7.9c-6.2,1.9-13.6,2.9-22.2,2.9h-61.3V306.8L250.2,306.8z M273.6,362.7h38.1
				c5.6,0,10.3-1.6,14-4.8s5.6-7.8,5.6-13.8c0-6.7-1.7-11.5-5-14.2c-3.4-2.7-8.2-4.1-14.6-4.1h-38.1V362.7L273.6,362.7z
				 M273.6,421.2h41.3c7.1,0,12.6-1.8,16.5-5.5c3.9-3.7,5.9-8.9,5.9-15.6c0-6.6-1.9-11.7-5.9-15.3c-4-3.6-9.4-5.3-16.5-5.3h-41.3
				V421.2z"/>
		</g>
	</g>
	<g>
		<path fill="#563D7C" d="M466.9,422V314.6h40.3c8.2,0,14.8,1.1,19.7,3.3c5,2.2,8.8,5.5,11.6,10c2.8,4.5,4.2,9.2,4.2,14.2
			c0,4.6-1.2,8.9-3.7,13c-2.5,4.1-6.3,7.3-11.3,9.8c6.5,1.9,11.5,5.2,15,9.7c3.5,4.6,5.2,10,5.2,16.3c0,5-1.1,9.7-3.2,14
			c-2.1,4.3-4.7,7.7-7.9,10c-3.1,2.3-7,4.1-11.8,5.3c-4.7,1.2-10.5,1.8-17.3,1.8H466.9z M481.1,359.7h23.2c6.3,0,10.8-0.4,13.5-1.2
			c3.6-1.1,6.3-2.9,8.2-5.3c1.8-2.5,2.7-5.6,2.7-9.4c0-3.6-0.9-6.7-2.6-9.4c-1.7-2.7-4.2-4.6-7.3-5.6c-3.2-1-8.6-1.5-16.3-1.5h-21.5
			V359.7z M481.1,409.3h26.7c4.6,0,7.8-0.2,9.7-0.5c3.3-0.6,6-1.6,8.2-2.9c2.2-1.4,4-3.4,5.4-6c1.4-2.6,2.1-5.6,2.1-9
			c0-4-1-7.5-3.1-10.4c-2.1-3-4.9-5-8.5-6.2c-3.6-1.2-8.9-1.8-15.7-1.8h-24.8V409.3z"/>
		<path fill="#563D7C" d="M560.9,383.1c0-14.4,4-25.1,12-32c6.7-5.8,14.8-8.6,24.5-8.6c10.7,0,19.4,3.5,26.2,10.5
			c6.8,7,10.2,16.7,10.2,29c0,10-1.5,17.9-4.5,23.6c-3,5.7-7.4,10.2-13.1,13.4c-5.7,3.2-12,4.8-18.8,4.8c-10.9,0-19.7-3.5-26.4-10.5
			C564.3,406.3,560.9,396.2,560.9,383.1z M574.5,383.1c0,10,2.2,17.4,6.5,22.4c4.3,5,9.8,7.4,16.4,7.4c6.5,0,12-2.5,16.3-7.5
			c4.3-5,6.5-12.6,6.5-22.8c0-9.6-2.2-16.9-6.6-21.9c-4.4-5-9.8-7.4-16.3-7.4c-6.6,0-12.1,2.5-16.4,7.4
			C576.7,365.7,574.5,373.1,574.5,383.1z"/>
		<path fill="#563D7C" d="M644.4,383.1c0-14.4,4-25.1,12-32c6.7-5.8,14.8-8.6,24.5-8.6c10.7,0,19.4,3.5,26.2,10.5
			c6.8,7,10.2,16.7,10.2,29c0,10-1.5,17.9-4.5,23.6c-3,5.7-7.4,10.2-13.1,13.4c-5.7,3.2-12,4.8-18.8,4.8c-10.9,0-19.7-3.5-26.4-10.5
			C647.7,406.3,644.4,396.2,644.4,383.1z M657.9,383.1c0,10,2.2,17.4,6.5,22.4c4.3,5,9.8,7.4,16.4,7.4c6.5,0,12-2.5,16.3-7.5
			c4.3-5,6.5-12.6,6.5-22.8c0-9.6-2.2-16.9-6.6-21.9c-4.4-5-9.8-7.4-16.3-7.4c-6.6,0-12.1,2.5-16.4,7.4
			C660.1,365.7,657.9,373.1,657.9,383.1z"/>
		<path fill="#563D7C" d="M761.5,410.2l1.9,11.6c-3.7,0.8-7,1.2-10,1.2c-4.8,0-8.5-0.8-11.1-2.3s-4.5-3.5-5.6-6
			c-1.1-2.5-1.6-7.7-1.6-15.6v-44.8h-9.7v-10.3h9.7v-19.3l13.1-7.9v27.2h13.3v10.3h-13.3v45.5c0,3.8,0.2,6.2,0.7,7.3
			c0.5,1.1,1.2,1.9,2.3,2.6c1,0.6,2.6,1,4.5,1C757.2,410.7,759.1,410.5,761.5,410.2z"/>
		<path fill="#563D7C" d="M769.1,398.8l13-2.1c0.7,5.2,2.8,9.2,6.1,12c3.3,2.8,8,4.2,14,4.2c6.1,0,10.5-1.2,13.5-3.7
			c2.9-2.5,4.4-5.4,4.4-8.7c0-3-1.3-5.3-3.9-7c-1.8-1.2-6.3-2.7-13.5-4.5c-9.7-2.4-16.4-4.6-20.1-6.3c-3.7-1.8-6.6-4.2-8.5-7.4
			c-1.9-3.1-2.9-6.6-2.9-10.4c0-3.5,0.8-6.7,2.4-9.6c1.6-3,3.7-5.4,6.5-7.4c2.1-1.5,4.8-2.8,8.4-3.8c3.5-1,7.3-1.6,11.4-1.6
			c6.1,0,11.5,0.9,16.1,2.6c4.6,1.8,8,4.1,10.2,7.1s3.7,7,4.5,12l-12.9,1.8c-0.6-4-2.3-7.1-5.1-9.4c-2.8-2.2-6.8-3.4-11.9-3.4
			c-6.1,0-10.4,1-13,3c-2.6,2-3.9,4.3-3.9,7c0,1.7,0.5,3.2,1.6,4.6c1.1,1.4,2.8,2.6,5.1,3.5c1.3,0.5,5.2,1.6,11.6,3.4
			c9.3,2.5,15.8,4.5,19.5,6.1c3.7,1.6,6.6,3.9,8.7,6.9c2.1,3,3.1,6.8,3.1,11.3c0,4.4-1.3,8.5-3.8,12.4c-2.6,3.9-6.3,6.9-11.1,9
			c-4.8,2.1-10.3,3.2-16.4,3.2c-10.1,0-17.8-2.1-23.1-6.3C773.9,413.2,770.6,407,769.1,398.8z"/>
		<path fill="#563D7C" d="M878.2,410.2l1.9,11.6c-3.7,0.8-7,1.2-10,1.2c-4.8,0-8.5-0.8-11.1-2.3s-4.5-3.5-5.6-6
			c-1.1-2.5-1.6-7.7-1.6-15.6v-44.8h-9.7v-10.3h9.7v-19.3l13.1-7.9v27.2h13.3v10.3h-13.3v45.5c0,3.8,0.2,6.2,0.7,7.3
			c0.5,1.1,1.2,1.9,2.3,2.6c1,0.6,2.6,1,4.5,1C873.8,410.7,875.8,410.5,878.2,410.2z"/>
		<path fill="#563D7C" d="M890.9,422v-77.8h11.9V356c3-5.5,5.8-9.2,8.4-10.9c2.6-1.8,5.4-2.6,8.5-2.6c4.4,0,9,1.4,13.5,4.2
			l-4.5,12.2c-3.2-1.9-6.4-2.9-9.7-2.9c-2.9,0-5.5,0.9-7.8,2.6c-2.3,1.7-3.9,4.1-4.9,7.2c-1.5,4.7-2.2,9.8-2.2,15.4V422H890.9z"/>
		<path fill="#563D7C" d="M991.7,412.4c-4.9,4.2-9.6,7.1-14.1,8.8s-9.4,2.6-14.5,2.6c-8.5,0-15.1-2.1-19.7-6.3
			c-4.6-4.2-6.9-9.5-6.9-16c0-3.8,0.9-7.3,2.6-10.4s4-5.7,6.8-7.6c2.8-1.9,6-3.3,9.5-4.3c2.6-0.7,6.5-1.3,11.7-2
			c10.6-1.3,18.5-2.8,23.5-4.5c0-1.8,0.1-3,0.1-3.4c0-5.4-1.2-9.2-3.7-11.4c-3.4-3-8.4-4.5-15-4.5c-6.2,0-10.8,1.1-13.7,3.3
			c-3,2.2-5.1,6-6.6,11.5l-12.9-1.8c1.2-5.5,3.1-10,5.8-13.4c2.7-3.4,6.6-6,11.6-7.8c5.1-1.8,11-2.7,17.7-2.7c6.6,0,12,0.8,16.2,2.3
			c4.1,1.6,7.2,3.5,9.2,5.9c2,2.4,3.3,5.4,4.1,9c0.4,2.2,0.7,6.3,0.7,12.2v17.6c0,12.3,0.3,20,0.8,23.3c0.6,3.2,1.7,6.4,3.3,9.3
			h-13.8C993,419.2,992.1,416,991.7,412.4z M990.7,382.9c-4.8,2-12,3.6-21.5,5c-5.4,0.8-9.3,1.7-11.5,2.6c-2.2,1-4,2.4-5.2,4.3
			c-1.2,1.9-1.8,4-1.8,6.3c0,3.5,1.3,6.4,4,8.8c2.7,2.3,6.6,3.5,11.7,3.5c5.1,0,9.6-1.1,13.5-3.3c4-2.2,6.9-5.3,8.7-9.1
			c1.4-3,2.1-7.4,2.1-13.2V382.9z"/>
		<path fill="#563D7C" d="M1024.4,451.8V344.2h12v10.1c2.8-4,6-6.9,9.6-8.9c3.6-2,7.9-3,13-3c6.6,0,12.5,1.7,17.6,5.1
			c5.1,3.4,8.9,8.2,11.5,14.5c2.6,6.2,3.9,13,3.9,20.5c0,8-1.4,15.1-4.3,21.5c-2.9,6.4-7,11.3-12.5,14.6c-5.4,3.4-11.2,5.1-17.2,5.1
			c-4.4,0-8.3-0.9-11.8-2.8c-3.5-1.9-6.4-4.2-8.6-7v37.9H1024.4z M1036.4,383.5c0,10,2,17.4,6.1,22.2c4.1,4.8,9,7.2,14.7,7.2
			c5.9,0,10.9-2.5,15.1-7.4c4.2-5,6.3-12.6,6.3-23c0-9.9-2-17.3-6.1-22.3c-4.1-4.9-8.9-7.4-14.6-7.4c-5.6,0-10.6,2.6-14.9,7.9
			C1038.5,365.9,1036.4,373.5,1036.4,383.5z"/>
	</g>
</g>
</svg>
